<svg xmlns="http://www.w3.org/2000/svg" viewBox="0 0 2669.65 397.66"><defs><style>.cls-1{fill:#464590;}.cls-2{fill:#272324;}.cls-3{fill:#c64d3b;}</style></defs><title>Logo_Bill Avenue</title><g id="Capa_2" data-name="Capa 2"><g id="Capa_1-2" data-name="Capa 1"><path class="cls-1" d="M183.2,207.12c45.65-14,69.23-50.06,69.23-92.36h0c0-46.3-48.65-86.4-110-83.83H0v182.4H.22V395.64H143.89c77.68,0,118.18-45.78,118.18-102.25h0C262.07,249.09,227.68,212.53,183.2,207.12ZM71.14,83.7h60.31c26-1.35,46.62,19.83,46.62,44.29h0c0,28.77-16.54,52.08-48.26,52.08H71.14ZM187.07,287.43c0,33.38-26.9,55.93-61.29,55.93H71.14V231.5H124.5c36.42,0,62.57,23,62.57,51.41Z"/><rect class="cls-1" x="322.5" y="131.86" width="69.43" height="263.79"/><rect class="cls-1" x="322.5" y="9.86" width="69.43" height="67.36"/><rect class="cls-1" x="466.5" width="69.43" height="395.64"/><rect class="cls-1" x="611.78" width="69.43" height="395.64"/><polygon class="cls-2" points="830.35 395.64 973.07 1.36 1024.5 2.69 1171.07 395.64 1118.35 395.64 1000.71 52.79 885.64 395.64 830.35 395.64"/><polygon class="cls-3" points="700.5 218.64 1024.5 218.64 1054.07 299.64 700.5 218.64"/><polygon class="cls-2" points="1138.92 106.79 1243.07 387.07 1291.92 387.07 1402.5 106.79 1352.35 106.79 1270.07 345.93 1190.35 106.79 1138.92 106.79"/><path class="cls-2" d="M1654.5,259.14V216.5c0-58.23-48.21-116.43-106.43-116.43h-2c-78.11,0-138.43,62.32-138.43,140.43v21.64a133.5,133.5,0,0,0,133.5,133.5h11.79s63-3.43,81-26.57V323.43c-27,31.5-78.43,31.5-78.43,31.5h-15.43a82.29,82.29,0,0,1-82.29-82.29v-13.5Zm-196.72-40.5a82.28,82.28,0,0,1,82.29-82.28h0a66.86,66.86,0,0,1,66.86,66.85v15.43Z"/><path class="cls-2" d="M2531.35,261.16V218.52c0-58.23-48.2-116.43-106.42-116.43h-2c-78.11,0-138.43,62.32-138.43,140.43v21.64A133.5,133.5,0,0,0,2418,397.66h11.78s63-3.43,81-26.57V325.45c-27,31.5-78.43,31.5-78.43,31.5h-15.42a82.29,82.29,0,0,1-82.29-82.29v-13.5Zm-196.71-40.5a82.28,82.28,0,0,1,82.29-82.28h0a66.85,66.85,0,0,1,66.85,66.85v15.43Z"/><path class="cls-2" d="M1849,102.93h-18c-35,0-67.84,24.94-80,57.26V107.43h-45V387.71h45V214.14c7.71-51.43,41.61-73,77.23-73.5l-.2-.18c42.54-.25,63.75,33.8,63.75,68.87V387.71H1938V200C1938,153.07,1906.5,100.07,1849,102.93Z"/><path class="cls-2" d="M2088.75,392.21h18c35,0,67.84-24.94,80-57.25v52.75h45V107.43h-45V281c-7.71,51.43-41.61,73-77.23,73.5l.2.18c-42.54.25-63.75-33.8-63.75-68.87V107.43h-46.29V295.18C1999.71,342.07,2031.21,395.07,2088.75,392.21Z"/><path class="cls-2" d="M2575,146.56V75h30.42q11.48,0,16.67,1.93a16.44,16.44,0,0,1,8.33,6.86,20.66,20.66,0,0,1,3.12,11.28,19.11,19.11,0,0,1-4.73,13.31q-4.74,5.24-14.16,6.61a33.91,33.91,0,0,1,7.74,6,81.71,81.71,0,0,1,8.22,11.62l8.74,14h-17.28L2611.62,131a100.48,100.48,0,0,0-7.62-10.53,11,11,0,0,0-4.34-3,23.74,23.74,0,0,0-7.28-.81h-2.93v29.88Zm14.45-41.31h10.7q10.39,0,13-.87a7.83,7.83,0,0,0,4.06-3,9.36,9.36,0,0,0,1.46-5.37,8.57,8.57,0,0,0-1.93-5.84,8.89,8.89,0,0,0-5.44-2.81q-1.76-.24-10.55-.24h-11.28Z"/><path class="cls-2" d="M2604.2,47.32a65.45,65.45,0,1,0,65.45,65.45A65.45,65.45,0,0,0,2604.2,47.32Zm0,117.82A53.79,53.79,0,1,1,2658,111.35,53.79,53.79,0,0,1,2604.2,165.14Z"/></g></g></svg>