<svg xmlns="http://www.w3.org/2000/svg" viewBox="0 0 4741.82 1564.95"><defs><style>.cls-1{fill:#f07921;}.cls-2{fill:#77787b;}.cls-3{fill:#f5b733;}.cls-4{fill:#1b3282;}</style></defs><title>Logo_BHARAT BILLPAY </title><g id="Layer_2" data-name="Layer 2"><g id="Layer_1-2" data-name="Layer 1"><path class="cls-1" d="M0,121.89c90.39,0,180.78.48,271.16-.43,16.79-.16,20.16,4.74,20.09,20.69-.66,164.4-.23,328.8-.9,493.2-.07,16.56,3,22,21,21.8q143.42-1.59,286.87-.32c97,.79,191.37,16.3,281.08,55.31,235.06,102.23,259.11,339.42,201.59,490-41.81,109.45-128,172.46-235.69,208.9-65.57,22.19-133.47,31.88-202.69,31.91q-321.27.13-642.53.12Zm485.81,732.6c-65.36,0-121,.47-176.66-.32-14.38-.2-18.89,3.31-18.79,18.4q1,163,0,326c-.09,14.73,3.78,18.71,18.48,18.61,96.89-.66,193.79-.24,290.69-.45a438.56,438.56,0,0,0,72.31-5.94c79.2-13.41,127.65-57,140.48-127.76,4.46-24.61,3.69-49.66,1.2-74.43-6.69-66.57-39.7-113.54-103.83-136.81a258.9,258.9,0,0,0-66.73-15C587.39,852.13,531.71,855.85,485.81,854.49Z"/><path class="cls-2" d="M1329,1565c-4.92-14.3-3.92-29.13-3.92-43.86q0-738.61,0-1477.22c0-14.74-1-29.57,3.92-43.87h23.59c4.36,10.29,5.68,20.94,5.67,32.16q-.22,750.32,0,1500.63c0,11.22-1.31,21.87-5.67,32.16Z"/><path class="cls-3" d="M713,620.14c49.09-45.33,54.59-100.7,45.15-159.12-9.13-56.48-56.52-96.27-123.15-107-26.61-4.28-53.36-5.75-80.23-5.78-68.79-.05-137.57-.33-206.35.25-13.27.11-18.12-3-17.95-17.26.76-64.84.51-129.7.15-194.55,0-10.24,1.48-15.27,13.62-15,122.44,2.27,245-4.58,367.33,4.57,50.31,3.76,99.84,13.22,147.2,31.55,114.65,44.37,173.49,129.94,182.77,250.79,3.51,45.76,2.26,91.43-10.61,136.31-15.76,55-47.72,98.28-91.61,133.75-6.62,5.35-12.42,7.65-21.2,3.47C853.94,651.52,785.57,634.31,713,620.14Z"/><path class="cls-4" d="M1972.67,407.36c40.93-25.54,67.57-67.1,67.57-114h0c0-79.28-74.45-143.54-166.28-143.54H1573.35V740h324.19a173.71,173.71,0,0,0,173.71-173.71h0A177.32,177.32,0,0,0,1972.67,407.36ZM1709.58,247.93h141a63,63,0,0,1,63,63v22.5A55.5,55.5,0,0,1,1858.1,389H1709.58ZM1935,576.64A61.33,61.33,0,0,1,1873.69,638H1709.58V482.16H1865.4A69.62,69.62,0,0,1,1935,551.78Z"/><path class="cls-4" d="M1972.67,1082.43c40.93-25.54,67.57-67.1,67.57-114h0c0-79.28-74.45-143.55-166.28-143.55H1573.35v590.2h324.19a173.71,173.71,0,0,0,173.71-173.71h0A177.31,177.31,0,0,0,1972.67,1082.43ZM1709.58,923h141a63,63,0,0,1,63,63v22.5a55.5,55.5,0,0,1-55.5,55.51H1709.58ZM1935,1251.71a61.33,61.33,0,0,1-61.33,61.33H1709.58V1157.22H1865.4a69.62,69.62,0,0,1,69.62,69.62Z"/><polygon class="cls-4" points="2120.62 149.79 2120.62 739.98 2252.64 739.98 2252.64 482.16 2480.66 482.16 2480.66 739.98 2615.67 739.98 2615.67 149.79 2489.66 149.79 2486.66 373.95 2246.6 370.83 2249.63 149.79 2120.62 149.79"/><path class="cls-4" d="M3005.71,149.79h-138L2648.67,740h135l42-135h225l36,135h147ZM2867.7,506l69-210,69,210Z"/><path class="cls-4" d="M4127.71,149.79h-138L3770.67,740h135l42-135h225l36,135h147ZM3989.7,506l69-210,69,210Z"/><path class="cls-4" d="M4045.41,825.79H3910.8L3697.17,1416h131.69l41-135h219.48l35.12,135h143.39ZM3910.8,1182l67.3-210,67.31,210Z"/><path class="cls-4" d="M3751.82,326.32V301.55a151.77,151.77,0,0,0-151.77-151.76H3255.82V740h132V506h156.32a75.68,75.68,0,0,1,75.68,75.68v133A25.33,25.33,0,0,0,3645.15,740h106.67V595.1a150.25,150.25,0,0,0-91.26-138.2A139.05,139.05,0,0,0,3751.82,326.32Zm-364-75h162a70,70,0,0,1,70,70v18a76,76,0,0,1-76,76h-156v-164Z"/><polygon class="cls-4" points="4255.82 149.79 4255.82 261.32 4429.82 261.32 4429.82 739.98 4565.82 739.98 4565.82 261.32 4741.82 261.32 4741.82 149.79 4255.82 149.79"/><polygon class="cls-4" points="4181.82 823.32 4331.82 823.32 4449.82 1079.32 4565.82 825.79 4703.82 825.79 4509.82 1189.32 4509.82 1415.98 4385.82 1419.32 4385.82 1189.32 4181.82 823.32"/><path class="cls-4" d="M3567.39,824.23l-277.57,1.56v593.53h120v-212h153a167,167,0,0,0,167-167V985.75A161.52,161.52,0,0,0,3567.39,824.23Zm40.43,207.09a70,70,0,0,1-70,70h-128v-172h130a68,68,0,0,1,68,68Z"/><polygon class="cls-4" points="2127.82 823.77 2127.82 1419.78 2252.7 1415.51 2252.7 823.77 2127.82 823.77"/><polygon class="cls-4" points="2936.7 1301.32 2936.7 823.32 2811.82 823.32 2811.82 1419.32 2881.82 1416.93 2881.82 1419.32 3229.82 1419.32 3229.82 1301.32 2936.7 1301.32"/><polygon class="cls-4" points="2468.7 1301.78 2468.7 823.77 2343.82 823.77 2343.82 1419.78 2413.82 1417.38 2413.82 1419.78 2761.82 1419.78 2761.82 1301.78 2468.7 1301.78"/></g></g></svg>